<?xml version="1.0" encoding="UTF-8"?>
<svg xmlns="http://www.w3.org/2000/svg" xmlns:xlink="http://www.w3.org/1999/xlink" viewBox="0 0 96 96" width="96px" height="96px">
<g id="surface48099234">
<path style=" stroke:none;fill-rule:nonzero;fill:rgb(94.509804%,76.862746%,5.882353%);fill-opacity:1;" d="M 36 9 L 36 18 L 24 18 L 24 78 L 36 78 L 36 87 L 42 87 L 42 78 L 48 78 L 48 87 L 54 87 L 54 78 L 58.5 78 C 67.582031 78 75 70.582031 75 61.5 C 75 55.253906 71.519531 49.769531 66.375 46.96875 C 69.84375 43.933594 72 39.445312 72 34.5 C 72 25.417969 64.582031 18 55.5 18 L 54 18 L 54 9 L 48 9 L 48 18 L 42 18 L 42 9 Z M 30 24 L 55.5 24 C 61.335938 24 66 28.664062 66 34.5 C 66 40.335938 61.335938 45 55.5 45 L 30 45 Z M 30 51 L 58.5 51 C 64.335938 51 69 55.664062 69 61.5 C 69 67.335938 64.335938 72 58.5 72 L 30 72 Z M 30 51 "/>
</g>
</svg>
